<!DOCTYPE svg PUBLIC "-//W3C//DTD SVG 1.1//EN" "http://www.w3.org/Graphics/SVG/1.1/DTD/svg11.dtd">
<!-- Uploaded to: SVG Repo, www.svgrepo.com, Transformed by: SVG Repo Mixer Tools -->
<svg version="1.1" id="Icons" xmlns="http://www.w3.org/2000/svg" xmlns:xlink="http://www.w3.org/1999/xlink" viewBox="0 0 32 32" xml:space="preserve" width="800px" height="800px" fill="#ffffff">
<g id="SVGRepo_bgCarrier" stroke-width="0"/>
<g id="SVGRepo_tracerCarrier" stroke-linecap="round" stroke-linejoin="round"/>
<g id="SVGRepo_iconCarrier"> <style type="text/css"> .st0{fill:none;stroke:#ffffff;stroke-width:2;stroke-linecap:round;stroke-linejoin:round;stroke-miterlimit:10;} </style> <path d="M27,4h-2c-0.6,0-1,0.4-1,1v4H7H5c-2.8,0-5,2.2-5,5v9c0,2.8,2.2,5,5,5h2h18c0.6,0,1-0.4,1-1v-4h1c2.8,0,5-2.2,5-5V9 C32,6.2,29.8,4,27,4z M4.9,23.4c-0.1,0.1-0.1,0.2-0.2,0.3C4.5,23.9,4.3,24,4,24c-0.1,0-0.3,0-0.4-0.1c-0.1-0.1-0.2-0.1-0.3-0.2 c-0.1-0.1-0.2-0.2-0.2-0.3C3,23.3,3,23.1,3,23c0-0.1,0-0.3,0.1-0.4c0.1-0.1,0.1-0.2,0.2-0.3c0.1-0.1,0.2-0.2,0.3-0.2 C4,21.9,4.4,22,4.7,22.3c0.1,0.1,0.2,0.2,0.2,0.3C5,22.7,5,22.9,5,23C5,23.1,5,23.3,4.9,23.4z M24,22v4H8V11h16V22z M28.7,9.7 C28.5,9.9,28.3,10,28,10c-0.3,0-0.5-0.1-0.7-0.3C27.1,9.5,27,9.3,27,9c0-0.1,0-0.3,0.1-0.4c0.1-0.1,0.1-0.2,0.2-0.3 c0.4-0.4,1-0.4,1.4,0c0.1,0.1,0.2,0.2,0.2,0.3C29,8.7,29,8.9,29,9C29,9.3,28.9,9.5,28.7,9.7z"/> </g>
</svg>